<svg xmlns="http://www.w3.org/2000/svg" xmlns:xlink="http://www.w3.org/1999/xlink" width="40" zoomAndPan="magnify" viewBox="0 0 30 30.000001" height="40" preserveAspectRatio="xMidYMid meet" version="1.0"><defs><clipPath id="1793f1908e"><path d="M 1.65625 5 L 28.5 5 L 28.5 24 L 1.65625 24 Z M 1.65625 5 " clip-rule="nonzero"/></clipPath></defs><g clip-path="url(#1793f1908e)"><path fill="#fcc22d" d="M 5.101562 19.753906 C 10.089844 17.351562 10.089844 11.335938 5.101562 8.933594 C 9.042969 8.476562 14.492188 9.964844 17.523438 14.34375 C 14.496094 18.722656 9.042969 20.210938 5.101562 19.753906 Z M 1.660156 7.582031 C 6.351562 5.207031 17.15625 6.886719 21.019531 14.34375 C 17.152344 21.800781 6.351562 23.480469 1.660156 21.109375 C 8.433594 26.320312 23.429688 22.972656 28.480469 14.34375 C 23.433594 5.714844 8.429688 2.367188 1.660156 7.582031 Z M 1.660156 7.582031 " fill-opacity="1" fill-rule="nonzero"/></g></svg>