<svg xmlns="http://www.w3.org/2000/svg" xmlns:xlink="http://www.w3.org/1999/xlink" width="40" zoomAndPan="magnify" viewBox="0 0 30 30.000001" height="40" preserveAspectRatio="xMidYMid meet" version="1.0"><defs><clipPath id="b17d4188d8"><path d="M 3.1875 1.925781 L 27.128906 1.925781 L 27.128906 27.328125 L 3.1875 27.328125 Z M 3.1875 1.925781 " clip-rule="nonzero"/></clipPath></defs><g clip-path="url(#b17d4188d8)"><path fill="#fcc22d" d="M 3.851562 23.414062 C 5.242188 17.636719 5.242188 11.617188 3.851562 5.839844 C 8.292969 8.191406 12.539062 11.136719 16.496094 14.628906 C 12.539062 18.121094 8.292969 21.0625 3.851562 23.414062 Z M 3.175781 1.957031 C 9.605469 5.027344 15.773438 9.4375 21.179688 14.628906 C 15.773438 19.820312 9.609375 24.226562 3.175781 27.300781 C 11.472656 25.605469 19.867188 21.359375 27.125 14.628906 C 19.867188 7.894531 11.472656 3.652344 3.175781 1.957031 Z M 3.175781 1.957031 " fill-opacity="1" fill-rule="nonzero"/></g></svg>