<svg xmlns="http://www.w3.org/2000/svg" aria-hidden="true" focusable="false">
  <symbol id="pointer" viewBox="0 0 24 24">
    <path d="M5 3.5L18.5 12l-5.7 1.6 2.2 5.9-2.7 1-2.2-5.9-4 4.2z" />
  </symbol>
  <symbol id="pass" viewBox="0 0 24 24">
    <path d="M5 12a7 7 0 0111.9-4.9L18.7 5 20 6.3l-2.4 2.4 2.4 2.4-1.3 1.3-2.4-2.4-2.4 2.4L12.6 11 15 8.6A5 5 0 007 12a5 5 0 003.7 4.8l-.5 1.9A7 7 0 015 12z" />
  </symbol>
  <symbol id="erase" viewBox="0 0 24 24">
    <path d="M3 15.5l7.5-9a2 2 0 013 0L21 15l-4 4H8l-5-3.5zm5.6 1.5h7.3l2.4-2.4-6-7.1a.5.5 0 00-.76 0L5.4 16.6 8.6 17z" />
  </symbol>
  <symbol id="help" viewBox="0 0 24 24">
    <path d="M12 2a10 10 0 1010 10A10 10 0 0012 2zm.1 5.2a3 3 0 012.9 2.7c0 1.7-1 2.5-2.1 3.4-.8.7-1.1 1.2-1.1 2.4h-1.8c0-1.6.4-2.5 1.5-3.4.8-.7 1.6-1.2 1.6-2.3a1.2 1.2 0 00-1.2-1.3 1.5 1.5 0 00-1.6 1.4H8.5a3.1 3.1 0 013.6-2.9zm-.1 10.8a1.4 1.4 0 111.4-1.4 1.4 1.4 0 01-1.4 1.4z" />
  </symbol>
  <symbol id="export" viewBox="0 0 24 24">
    <path d="M12 3l4.5 4.5h-3v5h-3v-5h-3zm-7 11h2v5h10v-5h2v7H5zm2-2h10v2H7z" />
  </symbol>
  <symbol id="reset" viewBox="0 0 24 24">
    <path d="M12 4a8 8 0 016.9 12.1l1.7.9A10 10 0 1012 2v2zm-1 6V3l5 5z" />
  </symbol>
  <symbol id="close" viewBox="0 0 24 24">
    <path d="M6.2 5l5.8 5.8L17.8 5 19 6.2 13.2 12l5.8 5.8-1.2 1.2-5.8-5.8L6.2 19 5 17.8 10.8 12 5 6.2z" />
  </symbol>
</svg>
