<svg xmlns="http://www.w3.org/2000/svg" aria-hidden="true" focusable="false">
  <!-- Existing icons (kept for backward compatibility) -->
  <symbol id="pointer" viewBox="0 0 24 24">
    <path d="M5 3.5L18.5 12l-5.7 1.6 2.2 5.9-2.7 1-2.2-5.9-4 4.2z" />
  </symbol>
  <symbol id="pass" viewBox="0 0 24 24">
    <path d="M5 12a7 7 0 0111.9-4.9L18.7 5 20 6.3l-2.4 2.4 2.4 2.4-1.3 1.3-2.4-2.4-2.4 2.4L12.6 11 15 8.6A5 5 0 007 12a5 5 0 003.7 4.8l-.5 1.9A7 7 0 015 12z" />
  </symbol>
  <symbol id="erase" viewBox="0 0 24 24">
    <path d="M3 15.5l7.5-9a2 2 0 013 0L21 15l-4 4H8l-5-3.5zm5.6 1.5h7.3l2.4-2.4-6-7.1a.5.5 0 00-.76 0L5.4 16.6 8.6 17z" />
  </symbol>
  <symbol id="help" viewBox="0 0 24 24">
    <path d="M12 2a10 10 0 1010 10A10 10 0 0012 2zm.1 5.2a3 3 0 012.9 2.7c0 1.7-1 2.5-2.1 3.4-.8.7-1.1 1.2-1.1 2.4h-1.8c0-1.6.4-2.5 1.5-3.4.8-.7 1.6-1.2 1.6-2.3a1.2 1.2 0 00-1.2-1.3 1.5 1.5 0 00-1.6 1.4H8.5a3.1 3.1 0 013.6-2.9zm-.1 10.8a1.4 1.4 0 111.4-1.4 1.4 1.4 0 01-1.4 1.4z" />
  </symbol>
  <symbol id="export" viewBox="0 0 24 24">
    <path d="M12 3l4.5 4.5h-3v5h-3v-5h-3zm-7 11h2v5h10v-5h2v7H5zm2-2h10v2H7z" />
  </symbol>
  <symbol id="reset" viewBox="0 0 24 24">
    <path d="M12 4a8 8 0 016.9 12.1l1.7.9A10 10 0 1012 2v2zm-1 6V3l5 5z" />
  </symbol>
  <symbol id="close" viewBox="0 0 24 24">
    <path d="M6.2 5l5.8 5.8L17.8 5 19 6.2 13.2 12l5.8 5.8-1.2 1.2-5.8-5.8L6.2 19 5 17.8 10.8 12 5 6.2z" />
  </symbol>

  <!-- Lucide Icons: Landscape/Portrait/Orientation -->
  <symbol id="landscape" viewBox="0 0 24 24">
    <rect x="2" y="4" width="20" height="16" rx="2" fill="none" stroke="currentColor" stroke-width="2"/>
    <path d="M2 12h20" stroke="currentColor" stroke-width="2" stroke-linecap="round"/>
  </symbol>

  <symbol id="portrait" viewBox="0 0 24 24">
    <rect x="6" y="2" width="12" height="20" rx="2" fill="none" stroke="currentColor" stroke-width="2"/>
    <path d="M6 12h12" stroke="currentColor" stroke-width="2" stroke-linecap="round"/>
  </symbol>

  <symbol id="flip" viewBox="0 0 24 24">
    <path d="M1 4v14a2 2 0 0 0 2 2h3.21l1.73-6.71a2 2 0 0 1 3.712 0L13.79 20H18a2 2 0 0 0 2-2V4a2 2 0 0 0-2-2H3a2 2 0 0 0-2 2z" fill="none" stroke="currentColor" stroke-width="2" stroke-linecap="round" stroke-linejoin="round"/>
  </symbol>

  <!-- Lucide Icons: Preset/Save/Apply/Manage -->
  <symbol id="save-preset" viewBox="0 0 24 24">
    <path d="M19 21H5a2 2 0 0 1-2-2V5a2 2 0 0 1 2-2h11l5 5v11a2 2 0 0 1-2 2z" fill="none" stroke="currentColor" stroke-width="2" stroke-linecap="round" stroke-linejoin="round"/>
    <polyline points="17 21 17 13 7 13 7 21" fill="none" stroke="currentColor" stroke-width="2" stroke-linecap="round" stroke-linejoin="round"/>
    <polyline points="7 3 7 8 15 8" fill="none" stroke="currentColor" stroke-width="2" stroke-linecap="round" stroke-linejoin="round"/>
    <line x1="12" y1="10" x2="12" y2="16" stroke="currentColor" stroke-width="2" stroke-linecap="round"/>
    <line x1="9" y1="13" x2="15" y2="13" stroke="currentColor" stroke-width="2" stroke-linecap="round"/>
  </symbol>

  <symbol id="apply-preset" viewBox="0 0 24 24">
    <path d="M3.9 12c0-1.71 1.39-3.1 3.1-3.1h4V7H7c-2.76 0-5 2.24-5 5s2.24 5 5 5h4v-1.9H7c-1.71 0-3.1-1.39-3.1-3.1zM8 13h8v-2H8v2zm3-8v1.9h4V7c2.76 0 5 2.24 5 5s-2.24 5-5 5h-4v-1.9h4c1.71 0 3.1-1.39 3.1-3.1 0-1.71-1.39-3.1-3.1-3.1h-4z" fill="currentColor"/>
  </symbol>

  <symbol id="manage-presets" viewBox="0 0 24 24">
    <circle cx="12" cy="12" r="1" fill="currentColor"/>
    <circle cx="19" cy="12" r="1" fill="currentColor"/>
    <circle cx="5" cy="12" r="1" fill="currentColor"/>
  </symbol>

  <!-- Lucide Icons: Fullscreen/Expand -->
  <symbol id="expand" viewBox="0 0 24 24">
    <path d="M8 3H5a2 2 0 0 0-2 2v3m18 0V5a2 2 0 0 0-2-2h-3m0 18h3a2 2 0 0 0 2-2v-3M3 16v3a2 2 0 0 0 2 2h3" fill="none" stroke="currentColor" stroke-width="2" stroke-linecap="round" stroke-linejoin="round"/>
  </symbol>

  <symbol id="fullscreen" viewBox="0 0 24 24">
    <path d="M8 3H5a2 2 0 0 0-2 2v3m18 0V5a2 2 0 0 0-2-2h-3m0 18h3a2 2 0 0 0 2-2v-3M3 16v3a2 2 0 0 0 2 2h3" fill="none" stroke="currentColor" stroke-width="2" stroke-linecap="round" stroke-linejoin="round"/>
  </symbol>

  <!-- Lucide Icons: Playback Controls -->
  <symbol id="play" viewBox="0 0 24 24">
    <polygon points="5 3 19 12 5 21 5 3" fill="none" stroke="currentColor" stroke-width="2" stroke-linecap="round" stroke-linejoin="round"/>
  </symbol>

  <symbol id="stop" viewBox="0 0 24 24">
    <rect x="6" y="4" width="12" height="16" fill="none" stroke="currentColor" stroke-width="2" stroke-linecap="round" stroke-linejoin="round"/>
  </symbol>

  <symbol id="skip-back" viewBox="0 0 24 24">
    <polygon points="19 5 9 12 19 19 19 5" fill="none" stroke="currentColor" stroke-width="2" stroke-linecap="round" stroke-linejoin="round"/>
    <line x1="5" y1="5" x2="5" y2="19" stroke="currentColor" stroke-width="2" stroke-linecap="round" stroke-linejoin="round"/>
  </symbol>

  <!-- Lucide Icons: Search/Diagnostics -->
  <symbol id="search" viewBox="0 0 24 24">
    <circle cx="11" cy="11" r="8" fill="none" stroke="currentColor" stroke-width="2"/>
    <path d="m21 21-4.35-4.35" stroke="currentColor" stroke-width="2" stroke-linecap="round"/>
  </symbol>

  <symbol id="diagnostic" viewBox="0 0 24 24">
    <circle cx="11" cy="11" r="8" fill="none" stroke="currentColor" stroke-width="2"/>
    <path d="m21 21-4.35-4.35" stroke="currentColor" stroke-width="2" stroke-linecap="round"/>
  </symbol>

  <!-- Lucide Icons: Undo/Redo -->
  <symbol id="undo" viewBox="0 0 24 24">
    <path d="M3 7v6h6" fill="none" stroke="currentColor" stroke-width="2" stroke-linecap="round" stroke-linejoin="round"/>
    <path d="M21 17a9 9 0 0 0-9-9 9 9 0 0 0-6 2.3L3 13" fill="none" stroke="currentColor" stroke-width="2" stroke-linecap="round" stroke-linejoin="round"/>
  </symbol>

  <symbol id="redo" viewBox="0 0 24 24">
    <path d="M21 7v6h-6" fill="none" stroke="currentColor" stroke-width="2" stroke-linecap="round" stroke-linejoin="round"/>
    <path d="M3 17a9 9 0 0 1 9-9 9 9 0 0 1 6 2.3l3 2.7" fill="none" stroke="currentColor" stroke-width="2" stroke-linecap="round" stroke-linejoin="round"/>
  </symbol>

  <!-- Lucide Icons: Theme -->
  <symbol id="sun" viewBox="0 0 24 24">
    <circle cx="12" cy="12" r="5" fill="none" stroke="currentColor" stroke-width="2"/>
    <line x1="12" y1="1" x2="12" y2="3" stroke="currentColor" stroke-width="2" stroke-linecap="round"/>
    <line x1="12" y1="21" x2="12" y2="23" stroke="currentColor" stroke-width="2" stroke-linecap="round"/>
    <line x1="4.22" y1="4.22" x2="5.64" y2="5.64" stroke="currentColor" stroke-width="2" stroke-linecap="round"/>
    <line x1="18.36" y1="18.36" x2="19.78" y2="19.78" stroke="currentColor" stroke-width="2" stroke-linecap="round"/>
    <line x1="1" y1="12" x2="3" y2="12" stroke="currentColor" stroke-width="2" stroke-linecap="round"/>
    <line x1="21" y1="12" x2="23" y2="12" stroke="currentColor" stroke-width="2" stroke-linecap="round"/>
    <line x1="4.22" y1="19.78" x2="5.64" y2="18.36" stroke="currentColor" stroke-width="2" stroke-linecap="round"/>
    <line x1="18.36" y1="5.64" x2="19.78" y2="4.22" stroke="currentColor" stroke-width="2" stroke-linecap="round"/>
  </symbol>

  <symbol id="moon" viewBox="0 0 24 24">
    <path d="M21 12.79A9 9 0 1 1 11.21 3 7 7 0 0 0 21 12.79z" fill="none" stroke="currentColor" stroke-width="2" stroke-linecap="round" stroke-linejoin="round"/>
  </symbol>

  <!-- Lucide Icons: Share -->
  <symbol id="share" viewBox="0 0 24 24">
    <circle cx="18" cy="5" r="3" fill="none" stroke="currentColor" stroke-width="2"/>
    <circle cx="6" cy="12" r="3" fill="none" stroke="currentColor" stroke-width="2"/>
    <circle cx="18" cy="19" r="3" fill="none" stroke="currentColor" stroke-width="2"/>
    <line x1="8.59" y1="13.51" x2="15.42" y2="17.49" stroke="currentColor" stroke-width="2"/>
    <line x1="15.41" y1="6.51" x2="8.59" y2="10.49" stroke="currentColor" stroke-width="2"/>
  </symbol>

  <!-- Lucide Icons: Download (for export) -->
  <symbol id="download" viewBox="0 0 24 24">
    <path d="M21 15v4a2 2 0 0 1-2 2H5a2 2 0 0 1-2-2v-4" fill="none" stroke="currentColor" stroke-width="2" stroke-linecap="round" stroke-linejoin="round"/>
    <polyline points="7 10 12 15 17 10" fill="none" stroke="currentColor" stroke-width="2" stroke-linecap="round" stroke-linejoin="round"/>
    <line x1="12" y1="15" x2="12" y2="3" stroke="currentColor" stroke-width="2" stroke-linecap="round" stroke-linejoin="round"/>
  </symbol>

  <!-- Lucide Icons: Minimize (exit fullscreen) -->
  <symbol id="minimize" viewBox="0 0 24 24">
    <path d="M8 3H5a2 2 0 0 0-2 2v3m18 0V5a2 2 0 0 0-2-2h-3m0 18h3a2 2 0 0 0 2-2v-3M3 16v3a2 2 0 0 0 2 2h3" fill="none" stroke="currentColor" stroke-width="2" stroke-linecap="round" stroke-linejoin="round"/>
  </symbol>

  <!-- Lucide Icons: Settings (for manage presets) -->
  <symbol id="settings" viewBox="0 0 24 24">
    <circle cx="12" cy="12" r="3" fill="none" stroke="currentColor" stroke-width="2"/>
    <path d="M12 1v6m0 6v6M4.22 4.22l4.24 4.24m5.08 5.08l4.24 4.24M1 12h6m6 0h6M4.22 19.78l4.24-4.24m5.08-5.08l4.24-4.24" fill="none" stroke="currentColor" stroke-width="2" stroke-linecap="round"/>
  </symbol>

  <!-- Lucide Icons: Layers (for pass playback) -->
  <symbol id="layers" viewBox="0 0 24 24">
    <polygon points="12 2 2 7 2 17 12 22 22 17 22 7 12 2" fill="none" stroke="currentColor" stroke-width="2" stroke-linecap="round" stroke-linejoin="round"/>
    <polyline points="2 7 12 12 22 7" fill="none" stroke="currentColor" stroke-width="2" stroke-linecap="round" stroke-linejoin="round"/>
    <polyline points="2 17 12 12 22 17" fill="none" stroke="currentColor" stroke-width="2" stroke-linecap="round" stroke-linejoin="round"/>
  </symbol>

  <!-- Lucide Icons: Social Media -->
  <symbol id="facebook" viewBox="0 0 24 24">
    <path d="M18 2h-3a6 6 0 0 0-6 6v9a1 1 0 0 0 1 1h3a1 1 0 0 0 1-1v-5h2a1 1 0 0 0 1-1v-3a1 1 0 0 0-1-1h-2V7a1 1 0 0 1 1-1h1a1 1 0 0 0 1-1V2z" fill="none" stroke="currentColor" stroke-width="2" stroke-linecap="round" stroke-linejoin="round"/>
  </symbol>

  <symbol id="twitter" viewBox="0 0 24 24">
    <path d="M23 3a10.9 10.9 0 01-3.14 1.53 4.48 4.48 0 00-7.86 3v1A10.66 10.66 0 013 4s-4 9 5 13a11.64 11.64 0 01-7 2s9 5 20 5a9.5 9.5 0 00-9-5.5c4.75 2.25 7-7 7-7" fill="none" stroke="currentColor" stroke-width="2" stroke-linecap="round" stroke-linejoin="round"/>
  </symbol>

  <symbol id="linkedin" viewBox="0 0 24 24">
    <path d="M16 8a6 6 0 016 6v7h-4v-7a2 2 0 00-2-2 2 2 0 00-2 2v7h-4v-7a6 6 0 016-6zM2 9h4v12H2z" fill="none" stroke="currentColor" stroke-width="2" stroke-linecap="round" stroke-linejoin="round"/>
    <circle cx="4" cy="4" r="2" fill="none" stroke="currentColor" stroke-width="2"/>
  </symbol>

  <symbol id="instagram" viewBox="0 0 24 24">
    <rect x="2" y="2" width="20" height="20" rx="5" ry="5" fill="none" stroke="currentColor" stroke-width="2"/>
    <path d="M16 11.37A4 4 0 1112.63 8A4 4 0 0116 11.37z" fill="none" stroke="currentColor" stroke-width="2"/>
    <circle cx="17.5" cy="6.5" r="1.5" fill="currentColor"/>
  </symbol>

  <symbol id="mail" viewBox="0 0 24 24">
    <rect x="2" y="4" width="20" height="16" rx="2" fill="none" stroke="currentColor" stroke-width="2"/>
    <path d="M2 6l10 7 10-7" fill="none" stroke="currentColor" stroke-width="2" stroke-linecap="round" stroke-linejoin="round"/>
  </symbol>

  <symbol id="link" viewBox="0 0 24 24">
    <path d="M10 13a5 5 0 0 0 7.54.54l3-3a5 5 0 0 0-7.07-7.07l-1.72 1.71" fill="none" stroke="currentColor" stroke-width="2" stroke-linecap="round" stroke-linejoin="round"/>
    <path d="M14 11a5 5 0 0 0-7.54-.54l-3 3a5 5 0 0 0 7.07 7.07l1.71-1.71" fill="none" stroke="currentColor" stroke-width="2" stroke-linecap="round" stroke-linejoin="round"/>
  </symbol>

  <symbol id="qr-code" viewBox="0 0 24 24">
    <rect x="3" y="3" width="7" height="7" fill="none" stroke="currentColor" stroke-width="2"/>
    <rect x="14" y="3" width="7" height="7" fill="none" stroke="currentColor" stroke-width="2"/>
    <rect x="3" y="14" width="7" height="7" fill="none" stroke="currentColor" stroke-width="2"/>
    <rect x="14" y="14" width="4" height="4" fill="none" stroke="currentColor" stroke-width="2"/>
    <line x1="17" y1="14" x2="17" y2="18" stroke="currentColor" stroke-width="2"/>
    <line x1="14" y1="17" x2="18" y2="17" stroke="currentColor" stroke-width="2"/>
  </symbol>
</svg>
